<?xml version="1.0" standalone="no"?><!DOCTYPE svg PUBLIC "-//W3C//DTD SVG 1.1//EN" "http://www.w3.org/Graphics/SVG/1.1/DTD/svg11.dtd"><svg t="1608274209870" class="icon" viewBox="0 0 1024 1024" version="1.1" xmlns="http://www.w3.org/2000/svg" p-id="22218" xmlns:xlink="http://www.w3.org/1999/xlink" width="64" height="64"><defs><style type="text/css"></style></defs><path d="M784.709818 690.362182C726.528 779.170909 626.082909 837.818182 512 837.818182c-114.129455 0-214.528-58.647273-272.709818-147.456-38.027636-32.628364-70.144-72.005818-94.487273-116.224C174.359273 750.219636 327.493818 884.363636 512 884.363636c184.459636 0 337.640727-134.144 367.197091-310.225455C854.853818 618.356364 822.737455 657.733818 784.709818 690.362182z" p-id="22219"></path><path d="M512 977.454545c-114.129455 0-214.528-58.647273-272.709818-147.456-38.027636-32.628364-70.144-72.005818-94.487273-116.224C174.359273 889.856 327.493818 1024 512 1024c184.459636 0 337.640727-134.144 367.197091-310.225455-24.343273 44.218182-56.459636 83.595636-94.487273 116.224C726.528 918.807273 626.082909 977.454545 512 977.454545z" p-id="22220"></path><path d="M549.376 359.796364C541.975273 354.490182 532.666182 348.858182 521.355636 342.853818 508.322909 335.965091 499.618909 329.960727 495.336727 324.933818c-4.375273-5.12-6.562909-11.589818-6.562909-19.362909 0-8.517818 2.699636-15.639273 8.098909-21.317818 5.399273-5.678545 12.241455-8.517818 20.433455-8.517818 13.265455 0 23.970909 8.750545 32.162909 26.251636l27.275636-17.873455c-6.330182-13.358545-13.032727-23.226182-20.014545-29.696-6.981818-6.469818-16.011636-10.705455-26.996364-12.8L529.733818 209.454545 505.297455 209.454545l0 32.162909C497.710545 243.898182 490.961455 247.063273 485.003636 251.112727c-5.957818 4.049455-10.984727 8.843636-15.034182 14.336S462.801455 277.178182 460.660364 283.927273C458.519273 290.722909 457.448727 298.030545 457.448727 305.896727c0 16.616727 4.514909 30.906182 13.591273 42.821818 5.678545 8.005818 17.594182 16.709818 35.700364 26.251636 8.750545 4.701091 15.965091 9.029818 21.597091 13.032727 5.632 4.002909 9.914182 7.586909 12.8 10.752 5.678545 6.562909 8.517818 15.266909 8.517818 26.065455 0 12.148364-3.397818 22.062545-10.193455 29.696-6.888727 7.773091-15.499636 11.636364-25.739636 11.636364-10.519273 0-18.990545-3.397818-25.320727-10.193455-6.050909-7.121455-11.170909-18.990545-15.406545-35.607273L442.181818 427.985455c4.561455 23.505455 11.636364 40.913455 21.271273 52.177455 9.588364 11.264 23.552 18.664727 41.844364 22.155636L505.297455 535.272727l24.482909 0 0-33.978182c15.778909-4.933818 28.346182-14.429091 37.794909-28.532364C577.070545 458.565818 581.818182 442.135273 581.818182 423.563636c0-18.897455-5.259636-35.048727-15.825455-48.407273C562.269091 370.222545 556.730182 365.102545 549.376 359.796364z" p-id="22221"></path><path d="M512 0C306.362182 0 139.636364 166.725818 139.636364 372.363636c0 205.637818 166.725818 372.363636 372.363636 372.363636 205.637818 0 372.363636-166.725818 372.363636-372.363636C884.363636 166.725818 717.637818 0 512 0zM512 698.181818c-179.944727 0-325.818182-145.873455-325.818182-325.818182 0-179.944727 145.873455-325.818182 325.818182-325.818182s325.818182 145.873455 325.818182 325.818182C837.818182 552.308364 691.944727 698.181818 512 698.181818z" p-id="22222"></path></svg>