<?xml version="1.0" standalone="no"?><!DOCTYPE svg PUBLIC "-//W3C//DTD SVG 1.1//EN" "http://www.w3.org/Graphics/SVG/1.1/DTD/svg11.dtd"><svg t="1608273696616" class="icon" viewBox="0 0 1024 1024" version="1.1" xmlns="http://www.w3.org/2000/svg" p-id="14317" xmlns:xlink="http://www.w3.org/1999/xlink" width="64" height="64"><defs><style type="text/css"></style></defs><path d="M843.264 473.6h-25.088l-187.904-198.656-0.512-0.512c-23.04-23.04-54.784-36.352-88.064-36.352h-235.52c-41.472-0.512-79.872 20.992-101.888 55.808l-1.024 1.536-82.944 179.712h-51.2c-34.816 0-63.488 28.16-63.488 63.488v138.24C5.632 744.96 65.024 798.72 133.12 798.72c5.12 0 10.24-1.536 14.848-4.096 11.776 53.248 59.392 93.184 116.224 93.184 55.808 0 101.888-37.888 115.2-89.088h292.352c13.312 51.2 59.904 89.088 115.2 89.088 66.048 0 119.296-53.248 119.296-119.296s-53.248-119.296-119.296-119.296c-54.272 0-99.84 35.84-114.688 85.504H378.88c-14.336-49.664-59.904-85.504-114.688-85.504-56.832 0-103.936 39.424-116.224 92.16-4.608-3.072-9.728-5.12-15.36-5.12-35.328-0.512-65.024-24.576-65.024-59.904v-134.144c0-2.048 1.536-4.096 4.096-4.096l771.072-1.536c64 0.512 111.104 47.616 111.104 111.104v53.248c0 16.384 17.408 29.696 33.792 29.696 16.384 0 29.696-13.312 29.696-29.696v-53.248c0-96.256-77.824-174.08-174.08-174.08z m-55.808 235.008c33.28 0 59.904 26.624 60.416 60.416 0 33.28-27.136 60.416-60.416 60.416s-60.416-27.136-60.416-60.416 27.136-60.416 60.416-60.416z m-523.264 0c33.28 0 60.416 26.624 60.416 60.416 0 33.28-27.136 60.416-60.416 60.416s-60.416-27.136-60.416-60.416 27.136-60.416 60.416-60.416z m278.016-412.16c16.896 0 33.792 6.656 46.08 18.944l149.504 158.208-269.824 0.512V296.448h74.24zM256 323.584c11.264-16.896 30.208-27.136 50.688-27.136h101.888v178.176l-222.72 0.512L256 323.584z" fill="#2C2C2C" p-id="14318"></path></svg>