<?xml version="1.0" standalone="no"?><!DOCTYPE svg PUBLIC "-//W3C//DTD SVG 1.1//EN" "http://www.w3.org/Graphics/SVG/1.1/DTD/svg11.dtd"><svg t="1605188481918" class="icon" viewBox="0 0 1024 1024" version="1.1" xmlns="http://www.w3.org/2000/svg" p-id="2878" xmlns:xlink="http://www.w3.org/1999/xlink" width="200" height="200"><defs><style type="text/css"></style></defs><path d="M464.2 712.4c0.5 17.9 4.3 31.2 11.3 39.9 7 8.8 20.1 14 39.2 15.8v-98.3c-25.8-4.3-44.4-12.2-55.7-23.5-11.3-11.3-17-26.3-17-44.8 0-19.5 6.1-35.3 18.1-47.1 12-11.8 30.3-18.6 54.6-20.6v-31h21.8v31c24.2 2.5 41.5 9.3 52.3 20.8 10.7 11.5 16.1 26.7 16.1 45.7h-26.5c-2-14-5.7-24.4-11.6-31-5.9-6.8-15.9-10.7-30.3-11.8V646c8.1 2.1 14.7 3.9 19.7 5.4 5 1.4 9.1 2.9 12.5 4.1 3 1.3 5.7 2.5 7.9 3.9 2.1 1.3 4.7 2.9 7.5 4.7 9.8 6.4 17 14.1 21.5 23.1 4.5 8.8 6.8 19.9 6.8 33.1 0 21.8-6.3 38.7-18.6 50.7-12.4 12-31.5 19-57.3 21v35.3h-21.8V792c-28.1-2.1-48.4-9.8-60.4-23.3-12.2-13.3-18.1-32.1-17.7-56.2h27.6z m14.7-85.6c6.6 7 18.6 12 35.8 15.4v-85.1c-15.8 0.7-27.4 4.8-34.7 12.4-7.3 7.7-11.1 17.6-11.1 29.7 0 11.3 3.2 20.5 10 27.6z m95.8 64.7c-7-8.1-19.7-14.1-38-17.9v94.7c15.2-0.4 27.2-4.8 35.6-13.3 8.4-8.4 12.7-19 12.7-31.9 0.1-13-3.5-23.6-10.3-31.6z" fill="#FF960B" p-id="2879"></path><path d="M680.6 378.1c7.5-26 22.9-80.9 45.8-164.2l0.4-1.6c9.1-52.7-26.1-102.8-78.8-112.1-19.7-3.4-29.2 5.4-37.4 13.1-4.8 4.7-10.4 9.7-20.8 15.8l-0.7 0.4c-2.5 1.6-4.3 2.5-5.2 2.9-0.5-0.4-1.1-0.9-1.6-1.4-13.1-11.5-29.7-19.5-63.2-2.5-2.9 1.4-4.5 1.8-5 2-0.7-0.5-2.3-1.6-3.4-2.5-12.9-10-29.5-19.2-64.1 1.3-2.7 1.6-4.1 2-4.7 2.1-2-1.3-5.6-6.3-7.7-9.5-6.6-9.3-17.6-25.1-37.2-21.7-52.7 9.1-87.9 59.5-78.8 112.1l0.2 1.1c23.6 99.9 34.4 144.5 39.6 164.8-115 53.9-188.6 169.2-188.6 296.7C169.3 836.9 288.7 930 497 930h43.9c208.3 0 327.7-93.1 327.7-255.4 0-127.5-73.4-242.6-188-296.5zM399.9 135.9c1.4 1.6 3.2 4.3 4.7 6.3 4.7 6.8 10.6 15.2 19.9 20.4 8.4 4.7 22.4 8.1 40.3-2.7 12-7 17-7.2 18.3-7.2 1.1 0.2 2.1 0.9 5.6 3.4 7.7 5.9 21.8 17 46.9 4.3 12-6.1 17-6.1 18.3-5.9 1.1 0.2 2 0.9 5 3.4 10.9 9.5 25.4 17.2 49.4 1.8 13.6-7.9 21.5-15.4 26.7-20.2 1.8-1.6 3.8-3.6 4.8-4.3 0.4 0 1.1 0 2.1 0.2 33 5.7 55.2 36.9 49.8 69.8-14.9 53.9-37.4 135.6-46 165.3-45.5 0.7-206.5 0.7-252.9 0-7.7-30.3-27-111.6-39.6-165.1-5.5-32 15.2-62.5 46.7-69.5z m141 758.1H497c-109.1 0-291.9-28.5-291.9-219.6 0-115.7 68.1-219.9 173.7-266.8h280.6c105.7 46.9 173.7 151.1 173.7 266.8C832.8 865.5 649.9 894 540.9 894z" fill="#3B4552" p-id="2880"></path><path d="M461.28 195.355l35.746-1.93 7.25 134.299-35.746 1.93zM542.095 327.802l7.244-134.298 35.746 1.928-7.244 134.298z" fill="#3B4552" p-id="2881"></path></svg>