<?xml version="1.0" standalone="no"?><!DOCTYPE svg PUBLIC "-//W3C//DTD SVG 1.1//EN" "http://www.w3.org/Graphics/SVG/1.1/DTD/svg11.dtd"><svg t="1608272808132" class="icon" viewBox="0 0 1024 1024" version="1.1" xmlns="http://www.w3.org/2000/svg" p-id="10633" xmlns:xlink="http://www.w3.org/1999/xlink" width="64" height="64"><defs><style type="text/css"></style></defs><path d="M180 938.4c-8.8 0-16-7.2-16-16V152C164 70.4 218.4 4 285.6 4h558.4c8.8 0 16 7.2 16 16v821.6c0 8.8-7.2 16-16 16H284.8c-43.2 0-81.6 24-87.2 56 0 0.8-0.8 1.6-0.8 2.4V923.2c-0.8 8-8 15.2-16.8 15.2zM285.6 36C236 36 196 88 196 152v704c22.4-19.2 53.6-31.2 88.8-31.2h543.2V36H285.6z" p-id="10634"></path><path d="M281.6 847.2c-4.8 0-8-3.2-8-8V20c0-4.8 3.2-8 8-8s8 3.2 8 8v819.2c0 4-4 8-8 8z" p-id="10635"></path><path d="M844 1020H281.6c-65.6 0-117.6-42.4-117.6-97.6s51.2-97.6 117.6-97.6h562.4c6.4 0 12 4 14.4 9.6 2.4 5.6 1.6 12.8-3.2 17.6-39.2 42.4-39.2 98.4 0 140.8 4 4.8 5.6 11.2 3.2 17.6-2.4 5.6-8 9.6-14.4 9.6z m-562.4-162.4c-48 0-85.6 28.8-85.6 65.6s37.6 65.6 85.6 65.6h530.4c-24-41.6-24-89.6 0-130.4H281.6zM704.8 388c-1.6 0-3.2-0.8-4-1.6l-76-48-76 48c-2.4 1.6-5.6 1.6-8 0-2.4-1.6-4-4-4-7.2v-360c0-4.8 3.2-8 8-8h160.8c4.8 0 8 3.2 8 8v360c0 3.2-1.6 5.6-4 7.2-2.4 1.6-4 1.6-4.8 1.6zM624 321.6c1.6 0 3.2 0.8 4 1.6l68 43.2V28H551.2v337.6l68-43.2c1.6-0.8 3.2-0.8 4.8-0.8z" p-id="10636"></path><path d="M813.6 906.4H492.8c-4.8 0-8-3.2-8-8s3.2-8 8-8h320.8c4.8 0 8 3.2 8 8s-4 8-8 8zM813.6 955.2H247.2c-4.8 0-8-3.2-8-8s3.2-8 8-8h565.6c4.8 0 8 3.2 8 8s-3.2 8-7.2 8zM704.8 564.8H435.2c-4.8 0-8-3.2-8-8s3.2-8 8-8h269.6c4.8 0 8 3.2 8 8s-4 8-8 8zM704.8 650.4H435.2c-4.8 0-8-3.2-8-8s3.2-8 8-8h269.6c4.8 0 8 3.2 8 8s-4 8-8 8z" p-id="10637"></path></svg>