<?xml version="1.0" standalone="no"?><!DOCTYPE svg PUBLIC "-//W3C//DTD SVG 1.1//EN" "http://www.w3.org/Graphics/SVG/1.1/DTD/svg11.dtd"><svg t="1608272885238" class="icon" viewBox="0 0 1024 1024" version="1.1" xmlns="http://www.w3.org/2000/svg" p-id="14887" xmlns:xlink="http://www.w3.org/1999/xlink" width="64" height="64"><defs><style type="text/css"></style></defs><path d="M648.56064 307.2c-37.41696 0-72.22272 10.48576-102.4 28.08832v-19.82464c0-36.46464 14.20288-70.72768 39.99744-96.53248l-48.26112-48.27136a204.15488 204.15488 0 0 0-59.99616 144.80384v19.83488C447.73376 317.696 412.90752 307.2 375.43936 307.2c-113.07008 0-204.8 91.6992-204.8 204.8l0.07168 68.25984C170.7008 768.75776 323.5328 921.6 512.03072 921.6c188.50816 0 341.32992-152.84224 341.32992-341.34016V512c0-113.1008-91.6992-204.8-204.8-204.8zM785.1008 580.25984c0 150.5792-122.50112 273.08032-273.07008 273.08032-150.56896 0-273.07008-122.50112-273.07008-273.08032l-0.06144-68.31104c0-75.23328 61.25568-136.48896 136.52992-136.48896 33.52576 0 65.80224 12.43136 90.97216 35.00032l45.55776 40.91904 45.63968-40.89856a136.02816 136.02816 0 0 1 90.96192-35.0208c75.30496 0 136.54016 61.24544 136.54016 136.52992v68.27008z" p-id="14888"></path><path d="M273.1008 102.4c94.2592 0 170.65984 76.46208 170.65984 170.67008-94.2592 0-170.65984-76.47232-170.65984-170.67008z" p-id="14889"></path></svg>