<?xml version="1.0" standalone="no"?>
<!DOCTYPE svg PUBLIC "-//W3C//DTD SVG 20010904//EN"
 "http://www.w3.org/TR/2001/REC-SVG-20010904/DTD/svg10.dtd">
<svg version="1.0" xmlns="http://www.w3.org/2000/svg"
 width="1500.000000pt" height="1500.000000pt" viewBox="0 0 1500.000000 1500.000000"
 preserveAspectRatio="xMidYMid meet">

<g transform="translate(0.000000,1500.000000) scale(0.100000,-0.100000)"
fill="#000000" stroke="none">
<path d="M2580 7500 l0 -820 820 0 820 0 0 820 0 820 -820 0 -820 0 0 -820z
m505 462 c220 -83 760 -323 815 -362 38 -27 41 -72 6 -95 -21 -14 -30 -14 -95
0 -39 9 -75 14 -81 10 -5 -3 6 -19 25 -36 41 -36 50 -61 34 -91 -17 -32 -28
-38 -78 -38 -40 0 -49 -5 -103 -58 -51 -52 -58 -63 -58 -99 0 -50 -31 -93 -67
-93 -16 0 -40 14 -66 40 -22 22 -41 39 -43 37 -2 -1 4 -32 12 -67 20 -87 16
-121 -18 -139 -25 -15 -29 -14 -54 9 -33 30 -97 164 -239 495 -120 279 -185
446 -185 474 0 11 11 28 25 39 29 23 47 20 170 -26z"/>
<path d="M5560 7860 l0 -320 30 0 30 0 0 320 0 320 -30 0 -30 0 0 -320z"/>
<path d="M5860 7860 l0 -320 30 0 30 0 0 320 0 320 -30 0 -30 0 0 -320z"/>
<path d="M4920 7853 c-73 -164 -135 -301 -137 -305 -2 -5 11 -8 30 -8 32 0 35
3 70 80 l36 80 166 0 166 0 36 -80 c34 -77 37 -80 69 -80 40 0 53 -39 -110
325 l-125 280 -34 3 -34 3 -133 -298z m228 80 c89 -195 97 -173 -62 -173 -75
0 -136 4 -136 8 0 5 22 58 49 118 27 60 56 127 65 148 9 22 18 37 20 35 2 -2
31 -64 64 -136z"/>
<path d="M7713 7845 l102 -305 32 0 33 0 82 255 c45 140 85 255 88 255 3 0 41
-114 85 -253 l81 -252 33 0 33 0 103 303 103 302 -33 0 -34 0 -40 -127 c-22
-71 -59 -190 -82 -265 -24 -76 -45 -135 -48 -132 -3 2 -41 120 -86 262 l-81
257 -34 0 -33 0 -80 -257 c-44 -142 -83 -258 -87 -258 -6 0 -14 23 -115 343
l-56 177 -34 0 -33 0 101 -305z"/>
<path d="M6285 7989 c-56 -13 -107 -52 -136 -102 -19 -34 -24 -56 -24 -117 0
-64 4 -82 28 -122 52 -88 159 -126 268 -95 66 20 109 58 89 82 -11 13 -17 12
-54 -9 -79 -45 -163 -41 -220 12 -27 25 -56 78 -56 102 0 6 64 10 185 10 l185
0 0 48 c-1 97 -59 172 -150 191 -58 12 -60 12 -115 0z m148 -68 c25 -14 67
-82 67 -109 0 -9 -44 -12 -161 -12 l-160 0 7 23 c20 66 58 104 119 117 40 9
93 1 128 -19z"/>
<path d="M6750 7770 l0 -230 30 0 30 0 0 144 c0 132 2 146 23 176 37 55 71 74
131 74 34 0 63 -6 80 -18 46 -30 56 -70 56 -231 l0 -145 30 0 30 0 0 163 c0
149 -2 167 -22 207 -53 104 -201 120 -290 30 l-38 -38 0 49 c0 48 -1 49 -30
49 l-30 0 0 -230z"/>
<path d="M8608 7595 c-14 -30 3 -55 38 -55 17 0 25 7 30 25 13 51 -46 77 -68
30z"/>
<path d="M4820 6905 c0 -122 2 -145 15 -145 12 0 15 14 15 65 l0 65 90 0 90 0
0 -65 c0 -37 4 -65 10 -65 6 0 10 55 10 145 0 90 -4 145 -10 145 -6 0 -10 -28
-10 -65 l0 -65 -90 0 -90 0 0 65 c0 51 -3 65 -15 65 -13 0 -15 -23 -15 -145z"/>
<path d="M5320 7030 c-13 -25 -120 -262 -120 -267 0 -2 6 -3 14 -3 8 0 21 18
30 40 l16 40 81 0 81 0 15 -40 c9 -22 22 -40 30 -40 7 0 13 3 13 6 0 22 -126
284 -137 284 -7 0 -17 -9 -23 -20z m56 -87 c16 -37 31 -71 32 -75 2 -4 -26 -8
-62 -8 -39 0 -66 4 -66 10 0 16 54 140 61 140 3 0 19 -30 35 -67z"/>
<path d="M5630 6906 c0 -123 2 -146 15 -146 11 0 15 12 15 50 l0 50 64 0 c85
0 117 24 118 89 0 33 -5 49 -25 69 -22 22 -37 26 -106 30 l-81 5 0 -147z m153
103 c29 -16 37 -28 37 -61 0 -41 -41 -68 -106 -68 l-54 0 0 70 0 70 51 0 c28
0 60 -5 72 -11z"/>
<path d="M6000 6905 c0 -84 4 -145 9 -145 6 0 11 21 13 48 l3 47 73 5 c85 6
112 27 112 87 0 72 -45 103 -150 103 l-60 0 0 -145z m165 90 c14 -13 25 -33
25 -45 0 -11 -11 -32 -25 -45 -20 -21 -34 -25 -85 -25 l-60 0 0 70 0 70 60 0
c51 0 65 -4 85 -25z"/>
<path d="M6330 7046 c0 -2 25 -46 55 -97 45 -78 55 -102 55 -141 0 -27 5 -48
10 -48 6 0 10 21 10 47 0 36 9 62 44 122 68 119 69 121 54 121 -8 0 -34 -34
-58 -75 -24 -41 -47 -75 -50 -75 -3 0 -25 34 -50 75 -25 41 -51 75 -57 75 -7
0 -13 -2 -13 -4z"/>
<path d="M6985 7036 c-17 -7 -43 -28 -58 -45 -22 -27 -27 -42 -27 -86 0 -46 5
-59 31 -90 40 -45 95 -62 148 -47 38 12 69 37 58 48 -3 3 -19 -2 -36 -10 -49
-26 -95 -20 -135 15 -85 74 -34 199 81 199 21 0 48 -7 59 -15 20 -13 34 -11
34 6 0 10 -76 39 -103 39 -12 -1 -36 -7 -52 -14z"/>
<path d="M7376 7040 c-106 -32 -130 -178 -40 -249 59 -47 150 -36 203 24 26
31 31 44 31 90 0 44 -5 59 -27 86 -44 52 -101 68 -167 49z m132 -54 c33 -30
37 -40 37 -81 0 -41 -4 -51 -37 -81 -31 -28 -45 -34 -82 -34 -111 0 -159 128
-76 203 46 41 108 38 158 -7z"/>
<path d="M7730 6905 l0 -148 85 5 c94 6 124 20 155 71 38 62 17 152 -46 193
-18 12 -53 19 -110 22 l-84 5 0 -148z m195 85 c51 -48 49 -123 -5 -172 -27
-25 -38 -28 -95 -28 l-65 0 0 116 0 116 70 -4 c56 -3 74 -8 95 -28z"/>
<path d="M8150 6905 c0 -122 2 -145 15 -145 13 0 15 23 15 145 0 122 -2 145
-15 145 -13 0 -15 -23 -15 -145z"/>
<path d="M8360 6905 c0 -121 2 -145 15 -145 12 0 15 22 17 118 l3 117 89 -117
c49 -65 95 -118 102 -118 11 0 14 28 14 145 0 121 -2 145 -15 145 -12 0 -15
-22 -17 -116 l-3 -115 -85 115 c-116 157 -120 156 -120 -29z"/>
<path d="M8856 7040 c-83 -26 -122 -132 -76 -207 39 -65 110 -87 185 -58 l45
17 0 54 c0 30 -4 54 -10 54 -5 0 -10 -20 -10 -43 0 -37 -4 -46 -25 -55 -46
-21 -102 -15 -135 16 -107 97 10 254 140 187 37 -19 50 -2 16 20 -31 20 -91
27 -130 15z"/>
</g>
</svg>
