<?xml version="1.0" standalone="no"?><!DOCTYPE svg PUBLIC "-//W3C//DTD SVG 1.1//EN" "http://www.w3.org/Graphics/SVG/1.1/DTD/svg11.dtd"><svg t="1608271306438" class="icon" viewBox="0 0 1024 1024" version="1.1" xmlns="http://www.w3.org/2000/svg" p-id="1762" xmlns:xlink="http://www.w3.org/1999/xlink" width="64" height="64"><defs><style type="text/css"></style></defs><path d="M893.442 685.837c3.215 0 6.402-1.067 9.063-3.257 2.633-2.189 4.296-5.141 4.878-8.273l51.358-411.532c0.776-4.019-0.194-8.314-2.993-11.71-2.8-3.382-6.846-5.142-10.948-5.142l-11.225 0-725.31 0-40.216-90.882c-1.053-2.439-2.827-4.601-5.211-6.153-2.411-1.565-5.1-2.3-7.761-2.3L79.191 146.588c-3.631 0-7.262 1.386-10.033 4.157C66.386 153.517 65 157.147 65 160.778l0 0c0 3.631 1.386 7.262 4.158 10.033 2.771 2.771 6.402 4.157 10.033 4.157l57.428 0c2.661 0 5.349 0.734 7.733 2.301 2.412 1.552 4.158 3.714 5.238 6.153l146.869 488.224-61.17 0-6.874 0c-4.601 0-9.119 2.245-11.835 6.375-2.744 4.144-3.021 9.174-1.22 13.4l30.433 70.954c1.053 2.48 2.799 4.67 5.211 6.264 2.411 1.594 5.127 2.342 7.816 2.342l19.041 0 613.142 0c3.631 0 7.262-1.386 10.033-4.157s4.157-6.402 4.157-10.033l0 0c0-3.631-1.386-7.262-4.157-10.033s-6.402-4.157-10.033-4.157l-625.31 0-18.265-42.573 629.383-14.19L893.442 685.838zM327.502 671.646l-106.68-397.342 707.349 0-45.953 383.15L327.502 671.646z" p-id="1763"></path><path d="M337.425 849.031m-28.382 0a28.382 28.382 0 1 0 56.764 0 28.382 28.382 0 1 0-56.764 0Z" p-id="1764"></path><path d="M834.102 849.031m-28.382 0a28.382 28.382 0 1 0 56.764 0 28.382 28.382 0 1 0-56.764 0Z" p-id="1765"></path></svg>